<svg xmlns="http://www.w3.org/2000/svg" viewBox="0 0 500 500"><g id="freepik--background-complete--inject-4"><rect x="389.92" y="240.98" width="38.37" height="56.93" transform="translate(8.64 551.58) rotate(-68.53)" style="fill:#ebebeb"></rect><path d="M442.62,262.5a3,3,0,0,1-.68.28l-2,.72L432.62,266l-24.3,8.19-.2.07-.11-.19-.25-.44-12.91-22.57L391,244.22l-1-1.88a3.14,3.14,0,0,1-.32-.67,3.77,3.77,0,0,1,.41.62l1.12,1.83,4,6.79,13,22.49.26.44-.31-.11,24.36-8.05,7.38-2.37,2-.62A4.84,4.84,0,0,1,442.62,262.5Z" style="fill:#e0e0e0"></path><path d="M375.59,277.38c-.06-.12,5.85-3.45,13.2-7.43s13.38-7.11,13.45-7-5.84,3.45-13.2,7.43S375.66,277.51,375.59,277.38Z" style="fill:#e0e0e0"></path><path d="M420,269.45c.14,0,2.17,6.36,4.53,14.31s4.16,14.41,4,14.45-2.17-6.36-4.53-14.31S419.89,269.49,420,269.45Z" style="fill:#e0e0e0"></path><rect x="169.17" y="402.15" width="56.93" height="38.37" transform="translate(-167.37 132.63) rotate(-26.53)" style="fill:#ebebeb"></rect><path d="M214.91,391.79a5.33,5.33,0,0,1-.25.69l-.8,1.95c-.73,1.74-1.76,4.17-3,7.14l-10.18,23.55-.09.19-.21,0-.5-.11-25.4-5.51-7.69-1.73-2.08-.5a5.53,5.53,0,0,1-.72-.2,3.16,3.16,0,0,1,.74.1l2.1.4,7.72,1.57L200,424.65l.5.11-.29.15c4-9.16,7.67-17.44,10.32-23.48,1.33-2.95,2.41-5.36,3.18-7.08.37-.79.66-1.43.88-1.91A3.37,3.37,0,0,1,214.91,391.79Z" style="fill:#e0e0e0"></path><path d="M181.11,451.55c-.14,0,1.34-6.65,3.3-14.78s3.68-14.7,3.81-14.66-1.34,6.65-3.3,14.78S181.24,451.58,181.11,451.55Z" style="fill:#e0e0e0"></path><path d="M204.94,413.23c.06-.13,6.18,2.65,13.66,6.21S232.11,426,232,426.12s-6.17-2.65-13.66-6.21S204.88,413.35,204.94,413.23Z" style="fill:#e0e0e0"></path><path d="M130.87,262.58c19.36-12.92,24.08-37.36,23.67-59.4-.07-3.68.4-7.55-1.32-10.81s-5.83-5.52-9.19-4c-2.79,1.25-4,4.41-5.63,7a21.68,21.68,0,0,1-8.87,8.11c-2.39,1.18-5.34,1.88-7.66.57-3.19-1.8-3.5-6.19-3.42-9.85l.45-20.45c.08-3.65.15-7.39-1-10.88s-3.59-6.75-7.1-7.77-7.91.91-8.71,4.48c-.33,1.48,0,3-.17,4.55s-.87,3.19-2.34,3.59-2.95-.65-4-1.74c-3.77-3.75-6.29-8.55-8.64-13.31s-4.64-9.65-8-13.73-8.16-7.34-13.47-7.72-11,2.77-12.43,7.9,1.55,10.41,4.8,14.63a82,82,0,0,0,17,16.46c1.16.84,2.41,1.74,2.83,3.1.77,2.45-1.61,4.84-4.06,5.61-2.78.86-5.77.54-8.66.83s-6,1.5-7.19,4.18c-1.57,3.72,1.54,7.68,4.61,10.3A71.41,71.41,0,0,0,83.1,206.48c2.71,1,5.57,1.93,7.74,3.85s3.44,5.23,2.07,7.79-4.79,3.33-7.64,2.77-5.38-2.14-8.08-3.19c-5.06-2-11.65-1.73-15,2.57-2.18,2.82-2.44,6.8-1.4,10.22a26.62,26.62,0,0,0,5.47,9.12,71.29,71.29,0,0,0,30.1,21.56c11.75,4.22,22.68,5.48,34.49,1.41" style="fill:#ebebeb"></path><path d="M125.27,248.7a326.53,326.53,0,0,0-12.64-35.47q-1.92-4.64-3.79-9.14c-1.26-3-2.5-6-3.89-8.79a164,164,0,0,0-9-15.81c-3.09-4.89-6.22-9.42-9.16-13.64s-5.8-8.08-8.53-11.51a131,131,0,0,0-14.1-15.19c-1.8-1.66-3.24-2.91-4.22-3.74l-1.13-.94-.39-.3s.11.12.36.35l1.09,1c1,.86,2.37,2.12,4.15,3.8A138.32,138.32,0,0,1,78,154.58c2.71,3.43,5.52,7.32,8.46,11.53s6,8.77,9.11,13.66a164.24,164.24,0,0,1,8.91,15.77c1.39,2.82,2.62,5.76,3.87,8.77s2.51,6,3.79,9.13a331.81,331.81,0,0,1,12.66,35.4" style="fill:#e0e0e0"></path><path d="M104.81,195.25a9.28,9.28,0,0,0,.36-1.56c.2-1,.45-2.48.73-4.3.57-3.63,1.2-8.68,1.87-14.24s1.38-10.6,2-14.21c.32-1.81.6-3.27.8-4.28a10,10,0,0,0,.26-1.57,8.55,8.55,0,0,0-.47,1.53c-.27,1-.6,2.44-1,4.25-.75,3.6-1.52,8.64-2.19,14.21s-1.25,10.51-1.7,14.26c-.23,1.74-.42,3.19-.56,4.31A8.89,8.89,0,0,0,104.81,195.25Z" style="fill:#e0e0e0"></path><path d="M57.3,185.75a2.87,2.87,0,0,0,.49.08l1.41.14c1.22.12,3,.29,5.17.56,4.35.52,10.35,1.46,16.92,2.78s12.45,2.8,16.68,4c2.12.58,3.82,1.09,5,1.44l1.36.4a2.07,2.07,0,0,0,.49.11,1.77,1.77,0,0,0-.45-.21l-1.33-.5c-1.16-.42-2.84-1-5-1.62-4.21-1.29-10.1-2.81-16.68-4.15s-12.61-2.2-17-2.62c-2.19-.23-4-.34-5.2-.39l-1.42,0A1.56,1.56,0,0,0,57.3,185.75Z" style="fill:#e0e0e0"></path><path d="M124.75,247.81a2.56,2.56,0,0,0,.32-.57c.22-.44.5-1,.84-1.7.71-1.47,1.7-3.63,2.88-6.31,2.37-5.35,5.42-12.85,8.68-21.17s6.25-15.83,8.52-21.22l2.73-6.37.73-1.74a3.37,3.37,0,0,0,.23-.62,2.8,2.8,0,0,0-.33.57l-.83,1.7c-.72,1.47-1.7,3.63-2.88,6.31-2.38,5.35-5.42,12.85-8.68,21.17s-6.25,15.83-8.53,21.22l-2.72,6.37-.74,1.74A2.82,2.82,0,0,0,124.75,247.81Z" style="fill:#e0e0e0"></path><path d="M61.75,226.73a4,4,0,0,0,.63.25l1.83.62L71,229.85c5.7,1.91,13.54,4.64,22.2,7.68s16.52,5.71,22.26,7.53c2.86.9,5.19,1.62,6.81,2.08l1.86.52a2.79,2.79,0,0,0,.66.15,3.07,3.07,0,0,0-.63-.25l-1.83-.63-6.75-2.25c-5.7-1.9-13.54-4.63-22.2-7.67s-16.52-5.71-22.25-7.53c-2.87-.91-5.2-1.62-6.82-2.08l-1.86-.53A3,3,0,0,0,61.75,226.73Z" style="fill:#e0e0e0"></path><rect x="68.36" y="44.6" width="70.5" height="41.95" rx="7.04" style="fill:#e0e0e0"></rect><polyline points="111.24 85.22 127.91 100.02 129.28 85.48" style="fill:#e0e0e0"></polyline><path d="M94.44,66.18a4.11,4.11,0,1,1-4.11-4.11A4.11,4.11,0,0,1,94.44,66.18Z" style="fill:#fff"></path><path d="M108.56,66.18a4.11,4.11,0,1,1-4.1-4.11A4.1,4.1,0,0,1,108.56,66.18Z" style="fill:#fff"></path><path d="M122.69,66.18a4.11,4.11,0,1,1-4.1-4.11A4.11,4.11,0,0,1,122.69,66.18Z" style="fill:#fff"></path><rect x="336.28" y="89.38" width="38.37" height="56.93" transform="translate(115.72 405.54) rotate(-68.53)" style="fill:#ebebeb"></rect><path d="M389,110.9a3.28,3.28,0,0,1-.68.29l-2,.71L379,114.43l-24.31,8.19-.2.07-.11-.19-.25-.44L341.21,99.49c-1.6-2.86-2.92-5.19-3.86-6.87l-1-1.88a3.67,3.67,0,0,1-.33-.67,3.9,3.9,0,0,1,.42.62l1.11,1.83c1,1.66,2.33,4,4,6.79l13,22.49.25.45-.3-.12,24.35-8,7.39-2.38,2-.62A5.25,5.25,0,0,1,389,110.9Z" style="fill:#e0e0e0"></path><path d="M322,125.78c-.07-.12,5.84-3.45,13.19-7.43s13.38-7.11,13.45-7-5.84,3.45-13.2,7.43S322,125.91,322,125.78Z" style="fill:#e0e0e0"></path><path d="M366.39,117.85c.13,0,2.16,6.37,4.52,14.31s4.17,14.42,4,14.46-2.16-6.37-4.52-14.31S366.25,117.89,366.39,117.85Z" style="fill:#e0e0e0"></path></g><g id="freepik--Floor--inject-4"><path d="M468.1,466.42c0,.14-97.65.26-218.09.26s-218.11-.12-218.11-.26,97.63-.26,218.11-.26S468.1,466.27,468.1,466.42Z" style="fill:#263238"></path></g><g id="freepik--speech-bubbles--inject-4"><circle cx="257.9" cy="246.02" r="12.9" style="fill:#DECDF1"></circle><circle cx="302.3" cy="246.02" r="12.9" style="fill:#DECDF1"></circle><path d="M388.16,179.27a2.73,2.73,0,0,1,.76-.05,10.48,10.48,0,0,1,2.23.25,12.17,12.17,0,0,1,3.47,1.3,12.82,12.82,0,0,1,3.88,3.35,12.68,12.68,0,0,1,2.55,6,14,14,0,0,1,.16,1.85c0,.62,0,1.24,0,1.88,0,1.28,0,2.62,0,4,.05,5.55.09,11.93.15,19.08.07,14.31.15,31.71.25,51.74q0,7.51.06,15.5,0,4,0,8.11c0,1.37,0,2.75,0,4.14,0,.69,0,1.39,0,2.09a15.68,15.68,0,0,1-.2,2.26,13.65,13.65,0,0,1-13,11.4l-18.22.06,1.08-1c-1.18,12.81-2.42,26.34-3.72,40.38l-.2,2.19-1.7-1.4-48.91-40.3.8.28-100.22.05H193.85c-.8,0-1.53,0-2.38,0a13.79,13.79,0,0,1-10.94-5.82,14.09,14.09,0,0,1-2.15-4.61,18.27,18.27,0,0,1-.45-4.9q0-4.6,0-9.18,0-9.13,0-18.13c0-24,.05-47.1.07-69.13,0-2.75,0-5.49,0-8.2a14.48,14.48,0,0,1,.55-4.35,14.16,14.16,0,0,1,1.87-4,13.82,13.82,0,0,1,6.83-5.21,13.29,13.29,0,0,1,4.23-.77c1.36,0,2.63,0,3.95,0l30.36.06,54.49.16,78.91.41,21.45.25,5.58.13a10.64,10.64,0,0,1,1.9.13,9.54,9.54,0,0,1-1.9.13l-5.58.13-21.45.25-78.91.41-54.49.16-30.36.06c-1.29,0-2.64,0-3.9,0a10.9,10.9,0,0,0-3.52.65,11.49,11.49,0,0,0-5.65,4.34,11.75,11.75,0,0,0-2,7c0,2.71,0,5.45,0,8.2,0,22,.05,45.15.08,69.13q0,9,0,18.13v9.18a15.31,15.31,0,0,0,.38,4.26,11.3,11.3,0,0,0,8.57,8.23,12.06,12.06,0,0,0,2.08.25c.71,0,1.54,0,2.31,0H217.5l100.22.05h.45l.35.29,48.8,40.43-1.91.79c1.35-14,2.65-27.56,3.89-40.36l.09-1h1l18.16,0a11.61,11.61,0,0,0,11.1-9.65,13.71,13.71,0,0,0,.17-1.93c0-.7,0-1.4,0-2.09,0-1.39,0-2.77,0-4.14q0-4.11,0-8.11,0-8,.06-15.5c.1-20,.18-37.43.25-51.74.06-7.15.1-13.53.15-19.08,0-1.38,0-2.72,0-4,0-.64,0-1.26,0-1.88a14.13,14.13,0,0,0-.11-1.74,12.12,12.12,0,0,0-2.27-5.69,12.4,12.4,0,0,0-3.61-3.31,12.56,12.56,0,0,0-3.3-1.41C389.19,179.31,388.16,179.37,388.16,179.27Z" style="fill:#DECDF1"></path><path d="M110.65,243.47H305.43a13.4,13.4,0,0,1,13.4,13.4V361.93a13.4,13.4,0,0,1-13.4,13.4H110.65a13.39,13.39,0,0,1-13.39-13.39V256.87A13.39,13.39,0,0,1,110.65,243.47Z" style="fill:#DECDF1"></path><polyline points="232.04 371.11 284.43 417.63 288.73 371.94" style="fill:#DECDF1"></polyline><circle cx="166.32" cy="311.26" r="12.9" style="fill:#fff"></circle><circle cx="210.72" cy="311.26" r="12.9" style="fill:#fff"></circle><circle cx="255.12" cy="311.26" r="12.9" style="fill:#fff"></circle><g style="opacity:0.30000000000000004"><path d="M310.56,244l-20.82-.61-161,0c13.38,13.31,32.51,20.43,51.3,22.07s37.68-1.22,56.27-4.44,37.26-6.82,56.13-6.68c4,0,8.11.2,11.81-1.28S311.11,248,310.56,244Z"></path></g><circle cx="346.7" cy="246.02" r="12.9" style="fill:#DECDF1"></circle></g><g id="freepik--Plants--inject-4"><path d="M440.72,401.7c.89-3.06,2.78-6,5.72-7.29s6.58-.57,9.7.57,6.19,2.65,9.5,2.85,7.06-1.36,8.05-4.53c.93-3-.87-6.16-3.11-8.33a19.66,19.66,0,0,0-32.19,7.73" style="fill:#263238"></path><path d="M414.46,415c-4.86-4.62-4.62-12.66-2.19-18.92s7.72-11.05,13.63-14.22a43.19,43.19,0,0,1,37.63-1.21,17.86,17.86,0,0,0-14.44,8.47c-2.66,4.43-3.26,9.8-5.46,14.48A22.77,22.77,0,0,1,414.46,415" style="fill:#455a64"></path><path d="M412.13,387.26c-5.39-6.35-6.11-16.55-5.31-24.84s2.71-16.64,1.4-24.87c-.77-4.87-2.66-9.52-3.3-14.42s.27-10.42,4.06-13.58c4.36-3.63,11.22-2.77,15.75.63s7.16,8.77,9.08,14.1C438,336,439.57,349,436.11,361s-11.59,22.67-23.52,26.28" style="fill:#455a64"></path><path d="M409.54,439.41a3.41,3.41,0,0,1,0-.73c0-.48,0-1.19,0-2.1.06-1.83.23-4.47.64-7.7a99.79,99.79,0,0,1,2.06-11.28,52,52,0,0,1,5.14-13.06,54.15,54.15,0,0,1,8.42-11.24,52.82,52.82,0,0,1,8.82-7.33c1.34-.93,2.65-1.63,3.77-2.29s2.15-1.09,3-1.48l1.94-.81a3.88,3.88,0,0,1,.69-.25,3.44,3.44,0,0,1-.64.34l-1.9.9c-.8.42-1.79.94-2.92,1.56s-2.38,1.39-3.71,2.34a54.51,54.51,0,0,0-8.68,7.35,55.29,55.29,0,0,0-8.3,11.16c-5,8.66-6.31,17.75-7.3,24.13-.45,3.23-.68,5.85-.8,7.67-.06.86-.1,1.56-.13,2.09A3.25,3.25,0,0,1,409.54,439.41Z" style="fill:#263238"></path><path d="M363.1,362.19c-10,6-9.93,11.48-8.26,16.65s7.77,8.75,12.84,6.82c2.87-1.1,4.94-3.59,6.72-6.09s3.43-5.18,5.92-7,6.08-2.48,8.58-.7" style="fill:#263238"></path><path d="M355.65,368.78c2.6-3.6,9-4.64,13.1-2.84s7,5.36,9.7,8.91,5.26,7.31,8.95,9.78,8.84,3.37,12.52.88a10.71,10.71,0,0,0,4.25-7.37,24.46,24.46,0,0,0-.58-8.68c-.88-4.18-2.32-8.54-5.66-11.2-3.72-2.95-8.89-3.09-13.65-2.94-5.46.18-11,.59-16.11,2.48s-10.35,6-12.52,11" style="fill:#455a64"></path><path d="M401.26,431.43a5.36,5.36,0,0,1-.07-.86l-.09-2.47c-.06-2.2-.16-5.29-.27-9.09s-.29-8.41-.56-13.48-.67-10.64-1.44-16.43a52.62,52.62,0,0,0-1.64-8.34,43.31,43.31,0,0,0-3.05-7.3,39.43,39.43,0,0,0-8.05-10.66,30.69,30.69,0,0,0-7.44-5.09,23,23,0,0,0-2.26-1,4.19,4.19,0,0,1-.79-.35,6.84,6.84,0,0,1,.82.25,17.58,17.58,0,0,1,2.32.9,29.48,29.48,0,0,1,7.6,5,39.1,39.1,0,0,1,8.22,10.7,42.59,42.59,0,0,1,3.11,7.37,51.77,51.77,0,0,1,1.68,8.43c.77,5.82,1.14,11.4,1.4,16.48s.37,9.64.45,13.49.1,6.95.1,9.09v2.48A5.25,5.25,0,0,1,401.26,431.43Z" style="fill:#263238"></path><path d="M404.85,435.93a27.39,27.39,0,0,1-1.11-4.27,45,45,0,0,1-.47-12,79.58,79.58,0,0,1,3.79-17.44c2.05-6.41,4.82-13.27,7.19-20.63a95.11,95.11,0,0,0,2.86-10.91,98.36,98.36,0,0,0,1.41-10.41,152.69,152.69,0,0,0,.33-17.81c-.17-5.07-.43-9.17-.6-12-.08-1.38-.14-2.48-.18-3.26,0-.35,0-.63,0-.85a.81.81,0,0,1,0-.29,2.81,2.81,0,0,1,0,.28c0,.22.05.5.09.85.07.78.16,1.87.28,3.26.23,2.83.55,6.93.77,12a147.16,147.16,0,0,1-.22,17.86,97,97,0,0,1-1.39,10.47,93.48,93.48,0,0,1-2.86,11c-2.38,7.39-5.17,14.23-7.23,20.62a81.06,81.06,0,0,0-3.88,17.33,46.61,46.61,0,0,0,.3,11.95c.24,1.4.46,2.48.66,3.2.08.34.14.61.2.83A1.17,1.17,0,0,1,404.85,435.93Z" style="fill:#263238"></path><polygon points="429.54 440.43 382.77 440.43 381.7 431.43 429.54 431.43 429.54 440.43" style="fill:#263238"></polygon><polygon points="387.79 439.41 393.64 466.42 419.05 466.42 424.52 439.41 387.79 439.41" style="fill:#263238"></polygon><path d="M429.54,440.43c0,.15-10.28.24-23,.2s-23-.18-23-.33,10.28-.23,23-.19S429.54,440.29,429.54,440.43Z" style="fill:#455a64"></path><path d="M421.51,453.76a20.57,20.57,0,0,0-4.12-2.33,14.49,14.49,0,0,0-5-1,17.66,17.66,0,0,0-6.15,1.13c-2.13.72-4.12,1.56-6.07,2a14.28,14.28,0,0,1-5.25.15,10.64,10.64,0,0,1-3.37-1.08,6.9,6.9,0,0,1-.81-.52c-.17-.13-.26-.21-.25-.22a12.63,12.63,0,0,0,4.49,1.46,15,15,0,0,0,5.09-.25c1.86-.47,3.85-1.32,6-2.05A17.54,17.54,0,0,1,412.4,450a14.12,14.12,0,0,1,5.12,1.14,13.06,13.06,0,0,1,3.05,1.79,6.88,6.88,0,0,1,.72.63C421.45,453.66,421.53,453.75,421.51,453.76Z" style="fill:#455a64"></path><path d="M421.16,455.57a22,22,0,0,0-4-2.31,13.46,13.46,0,0,0-4.82-1,17.34,17.34,0,0,0-5.94,1.07c-2.06.69-4,1.49-5.85,2a14.74,14.74,0,0,1-5,.56,8.37,8.37,0,0,1-3.31-.9,5.38,5.38,0,0,1-.78-.5c-.17-.13-.25-.21-.24-.22s.39.22,1.11.54a9.08,9.08,0,0,0,3.24.71,15.29,15.29,0,0,0,4.9-.65c1.8-.51,3.72-1.32,5.8-2a17.2,17.2,0,0,1,6.12-1.06,13.13,13.13,0,0,1,7.88,2.9c.31.26.54.47.69.62S421.17,455.55,421.16,455.57Z" style="fill:#fff"></path><path d="M422,452a24.9,24.9,0,0,0-4.24-2.46,15.58,15.58,0,0,0-5.13-1.23,16.58,16.58,0,0,0-6.34,1.12,55.74,55.74,0,0,1-6.28,2.05,15.83,15.83,0,0,1-5.42,0,12.36,12.36,0,0,1-3.48-1.11,6.76,6.76,0,0,1-.84-.53c-.18-.14-.27-.22-.26-.23s.42.23,1.19.58a13.7,13.7,0,0,0,3.45.93,16.28,16.28,0,0,0,5.27-.11c1.93-.42,4-1.33,6.2-2.07a16.57,16.57,0,0,1,6.54-1.11,15.42,15.42,0,0,1,5.25,1.37,14.54,14.54,0,0,1,3.11,1.89,9.22,9.22,0,0,1,.75.65C421.91,451.87,422,452,422,452Z" style="fill:#fff"></path><path d="M95,423.24c-2,2.88-5.93,1.92-7.75.16s-2.58-4.3-3.28-6.73c-1.6-5.55-3.21-11.37-2-17A9.34,9.34,0,0,1,84.15,395a4.93,4.93,0,0,1,4.68-1.56c2,.52,3.21,2.45,4.1,4.29a40.74,40.74,0,0,1,4,17.42c0,2.81-.32,5.75-1.91,8.07" style="fill:#DECDF1"></path><g style="opacity:0.2"><path d="M95,423.24c-2,2.88-5.93,1.92-7.75.16s-2.58-4.3-3.28-6.73c-1.6-5.55-3.21-11.37-2-17A9.34,9.34,0,0,1,84.15,395a4.93,4.93,0,0,1,4.68-1.56c2,.52,3.21,2.45,4.1,4.29a40.74,40.74,0,0,1,4,17.42c0,2.81-.32,5.75-1.91,8.07"></path></g><path d="M87.48,437.82a17.52,17.52,0,0,0-10.84-1.32,9,9,0,0,0-5.36,2.39c-1.33,1.48-1.59,4.08,0,5.35a5.11,5.11,0,0,0,3.37.85c2.87,0,6.05-.53,8.34,1.19,1.3,1,2.17,2.62,3.74,3.1a3.69,3.69,0,0,0,4.06-1.8,6.31,6.31,0,0,0,.46-4.66A7.11,7.11,0,0,0,87.48,437.82Z" style="fill:#DECDF1"></path><path d="M100.57,427.37a10.46,10.46,0,0,1-1.63-9.64,18.51,18.51,0,0,1,5.71-8.29,30.68,30.68,0,0,1,10.23-6,10.87,10.87,0,0,1,4.6-.78,4.8,4.8,0,0,1,3.86,2.33c1.07,2.05,0,4.54-1.08,6.57a77,77,0,0,1-6.71,10.23c-2,2.6-4.32,5.16-7.39,6.33s-6.26,1-7.88-1.09" style="fill:#DECDF1"></path><path d="M95.17,466.67a5.73,5.73,0,0,1-.18-1.3c-.1-1-.21-2.15-.35-3.58s-.39-3.29-.8-5.23a40.52,40.52,0,0,0-1.91-6.19,22.69,22.69,0,0,0-3.15-5.59,11.89,11.89,0,0,0-4-3.32,11.07,11.07,0,0,0-3.36-1,7.37,7.37,0,0,1-1.3-.19,5.47,5.47,0,0,1,1.33,0,10,10,0,0,1,3.5.91,11.7,11.7,0,0,1,4.21,3.35,22,22,0,0,1,3.27,5.7,37,37,0,0,1,1.89,6.29,43.66,43.66,0,0,1,.7,5.3c.11,1.52.16,2.74.18,3.59A5.65,5.65,0,0,1,95.17,466.67Z" style="fill:#263238"></path><path d="M94.92,463.93a2.4,2.4,0,0,1,0-.61v-1.74c0-1.5,0-3.68-.07-6.38-.14-5.38-.6-12.82-1.5-21s-2.1-15.52-3.19-20.8c-.25-1.32-.51-2.51-.76-3.55s-.43-1.95-.62-2.67-.3-1.25-.41-1.69a2.71,2.71,0,0,1-.1-.6,2.28,2.28,0,0,1,.21.57l.5,1.66c.23.72.46,1.62.72,2.66s.56,2.22.84,3.54a195.72,195.72,0,0,1,3.35,20.82c.9,8.19,1.3,15.65,1.34,21.05,0,2.7,0,4.88-.1,6.39,0,.7-.08,1.28-.1,1.73A2.3,2.3,0,0,1,94.92,463.93Z" style="fill:#263238"></path><path d="M94.89,449.55a11.54,11.54,0,0,1,0-1.82c.07-1.16.23-2.85.56-4.91a67,67,0,0,1,4.59-15.63,44.94,44.94,0,0,1,8.79-13.69,21.91,21.91,0,0,1,2.07-1.92c.31-.27.59-.54.88-.75l.8-.55a10.93,10.93,0,0,1,1.53-1,56,56,0,0,0-5,4.46,48,48,0,0,0-8.57,13.64,68.21,68.21,0,0,0-3,8.4c-.78,2.63-1.3,5.05-1.7,7.09s-.59,3.71-.72,4.86A13.77,13.77,0,0,1,94.89,449.55Z" style="fill:#263238"></path></g></svg>